#N canvas 827 239 527 327 12;
#X obj 368 639 dac~;
#X obj 271 529 osc~;
#X obj 297 559 *~ 0.2;
#X obj 271 499 sig~ 87;
#X obj 342 501 sig~ 88;
#X obj 341 529 osc~;
#X obj 453 513 osc~;
#X obj 479 559 *~ 0.2;
#X obj 524 501 osc~;
#X obj 453 483 sig~ 174;
#X obj 525 473 sig~ 178;
#X obj 342 473 + 1;
#X obj 453 445 * 2;
#X msg 394 818 43;
#X msg 420 818 71.25;
#X msg 466 818 99;
#X msg 497 818 104.25;
#X msg 555 818 132;
#X msg 591 818 159.75;
#X msg 647 818 185.25;
#X msg 702 818 213;
#X msg 740 818 240.75;
#X msg 256 251 116;
#X msg 307 251 130;
#X msg 359 251 154;
#X msg 406 251 174;
#X obj 525 445 + 4;
#X obj 256 282 t f b;
#X obj 638 282 t f b;
#X msg 545 400 1;
#X msg 774 400 9;
#X msg 749 400 8;
#X msg 721 400 7;
#X msg 691 400 6;
#X msg 661 400 5;
#X msg 628 400 4;
#X msg 604 400 3;
#X msg 574 400 2;
#X msg 117 427 0.5;
#X msg 152 425 1;
#X msg 177 425 1.5;
#X msg 211 425 2;
#X msg 243 426 2.5;
#X msg 283 426 3;
#X msg 312 426 3.5;
#X msg 355 426 4;
#X msg 387 426 4.5;
#X obj 307 282 t f b;
#X obj 358 282 t f b;
#X obj 409 282 t f b;
#X obj 460 282 t f b;
#X obj 505 282 t f b;
#X obj 550 282 t f b;
#X obj 595 282 t f b;
#X obj 303 43 r influence @hv_param;
#X obj 252 12 r relive @hv_param;
#X obj 355 69 r liberate @hv_param;
#X obj 402 97 r alter @hv_param;
#X obj 450 121 r repair @hv_param;
#X obj 494 143 r love @hv_param;
#X obj 538 167 r awaken @hv_param;
#X obj 580 192 r ground @hv_param;
#X obj 632 218 r connect @hv_param;
#X msg 454 251 207;
#X msg 498 251 233;
#X msg 542 251 261.6;
#X msg 584 251 311;
#X msg 632 251 349.2;
#X obj 142 132 loadbang;
#X obj 438 604 *~ 0;
#X obj 325 604 *~ 0;
#X obj 599 574 r vol @hv_param;
#X text 550 617 Volume pot \, outputs value between 0 and 1;
#X obj 848 376 s led_red @hv_param;
#X obj 991 376 s led_blue @hv_param;
#X obj 1144 376 s led_green @hv_param;
#X obj 848 344 unpack f f f;
#X msg 849 71 1 0 0;
#X obj 900 45 r influence @hv_param;
#X obj 849 14 r relive @hv_param;
#X obj 952 71 r liberate @hv_param;
#X obj 1058 99 r alter @hv_param;
#X obj 1090 119 r repair @hv_param;
#X obj 1212 145 r love @hv_param;
#X obj 1247 169 r awaken @hv_param;
#X obj 1289 194 r ground @hv_param;
#X obj 1341 220 r connect @hv_param;
#X text 897 70 red;
#X msg 885 99 1 0.5 0;
#X text 941 98 orange;
#X msg 963 119 1 1 0;
#X text 1013 111 yellow;
#X msg 999 145 0 1 0;
#X msg 1090 145 0 1 1;
#X text 1132 144 llight blue;
#X text 1044 144 Green;
#X msg 1115 184 0 0 1;
#X text 1165 183 dark blue;
#X msg 1144 220 0.5 0 1;
#X text 1197 219 Purple;
#X msg 1212 252 1 0 1;
#X text 1262 251 Pink;
#X msg 1338 259 1 1 1;
#X text 1305 375 RGB LED values;
#X text 330 679 Left out would be for the water vibrating tones \, right for the more audible tones;
#X connect 1 0 2 0;
#X connect 2 0 70 0;
#X connect 3 0 1 0;
#X connect 4 0 5 0;
#X connect 5 0 2 0;
#X connect 6 0 7 0;
#X connect 7 0 69 0;
#X connect 8 0 7 0;
#X connect 9 0 6 0;
#X connect 10 0 8 0;
#X connect 11 0 4 0;
#X connect 12 0 9 0;
#X connect 12 0 26 0;
#X connect 22 0 27 0;
#X connect 23 0 47 0;
#X connect 24 0 48 0;
#X connect 25 0 49 0;
#X connect 26 0 10 0;
#X connect 27 0 12 0;
#X connect 27 0 3 0;
#X connect 27 0 11 0;
#X connect 27 1 29 0;
#X connect 27 1 38 0;
#X connect 28 0 12 0;
#X connect 28 0 11 0;
#X connect 28 0 3 0;
#X connect 28 1 30 0;
#X connect 28 1 46 0;
#X connect 29 0 26 1;
#X connect 30 0 26 1;
#X connect 31 0 26 1;
#X connect 32 0 26 1;
#X connect 33 0 26 1;
#X connect 34 0 26 1;
#X connect 35 0 26 1;
#X connect 36 0 26 1;
#X connect 37 0 26 1;
#X connect 38 0 11 1;
#X connect 39 0 11 1;
#X connect 40 0 11 1;
#X connect 41 0 11 1;
#X connect 42 0 11 1;
#X connect 43 0 11 1;
#X connect 44 0 11 1;
#X connect 45 0 11 1;
#X connect 46 0 11 1;
#X connect 47 0 11 0;
#X connect 47 0 3 0;
#X connect 47 0 12 0;
#X connect 47 1 39 0;
#X connect 47 1 37 0;
#X connect 48 0 11 0;
#X connect 48 0 3 0;
#X connect 48 0 12 0;
#X connect 48 1 40 0;
#X connect 48 1 36 0;
#X connect 49 0 3 0;
#X connect 49 0 11 0;
#X connect 49 0 12 0;
#X connect 49 1 41 0;
#X connect 49 1 35 0;
#X connect 50 0 11 0;
#X connect 50 0 3 0;
#X connect 50 0 12 0;
#X connect 50 1 42 0;
#X connect 50 1 34 0;
#X connect 51 0 11 0;
#X connect 51 0 3 0;
#X connect 51 0 12 0;
#X connect 51 1 33 0;
#X connect 51 1 43 0;
#X connect 52 0 12 0;
#X connect 52 0 11 0;
#X connect 52 0 3 0;
#X connect 52 1 32 0;
#X connect 52 1 44 0;
#X connect 53 0 12 0;
#X connect 53 0 3 0;
#X connect 53 0 11 0;
#X connect 53 1 31 0;
#X connect 53 1 45 0;
#X connect 54 0 23 0;
#X connect 55 0 22 0;
#X connect 56 0 24 0;
#X connect 57 0 25 0;
#X connect 58 0 63 0;
#X connect 59 0 64 0;
#X connect 60 0 65 0;
#X connect 61 0 66 0;
#X connect 62 0 67 0;
#X connect 63 0 50 0;
#X connect 64 0 51 0;
#X connect 65 0 52 0;
#X connect 66 0 53 0;
#X connect 67 0 28 0;
#X connect 68 0 22 0;
#X connect 69 0 0 1;
#X connect 70 0 0 0;
#X connect 71 0 69 1;
#X connect 71 0 70 1;
#X connect 76 0 73 0;
#X connect 76 1 74 0;
#X connect 76 2 75 0;
#X connect 77 0 76 0;
#X connect 78 0 88 0;
#X connect 79 0 77 0;
#X connect 80 0 90 0;
#X connect 81 0 92 0;
#X connect 82 0 93 0;
#X connect 83 0 96 0;
#X connect 84 0 98 0;
#X connect 85 0 100 0;
#X connect 86 0 102 0;
#X connect 88 0 76 0;
#X connect 90 0 76 0;
#X connect 92 0 76 0;
#X connect 93 0 76 0;
#X connect 96 0 76 0;
#X connect 98 0 76 0;
#X connect 100 0 76 0;
#X connect 102 0 76 0;
